<svg xmlns="http://www.w3.org/2000/svg" viewBox="0 0 64 64" width="64" height="64">
  <defs>
    <linearGradient id="g" x1="0" y1="0" x2="1" y2="1">
      <stop offset="0" stop-color="#3b82f6"/>
      <stop offset="1" stop-color="#22d3ee"/>
    </linearGradient>
  </defs>
  <rect width="64" height="64" rx="14" fill="#0B1120"/>
  <path d="M32 8l18 6v14c0 12-8 20-18 24-10-4-18-12-18-24V14z" fill="url(#g)" opacity="0.18" stroke="url(#g)" stroke-width="2"/>
  <path d="M20 38c1-5 3-8 5-9h14c2 1 4 4 5 9" fill="none" stroke="url(#g)" stroke-width="2.4" stroke-linecap="round"/>
  <rect x="21" y="37" width="22" height="7" rx="3" fill="url(#g)"/>
  <circle cx="26" cy="45" r="2.4" fill="#fff"/>
  <circle cx="38" cy="45" r="2.4" fill="#fff"/>
  <circle cx="32" cy="22" r="2.2" fill="#fff"/>
  <path d="M32 24v5M27 27h10" stroke="#fff" stroke-width="1.4" stroke-linecap="round"/>
</svg>
